<svg width="62" height="62" viewBox="0 0 62 62" fill="none" xmlns="http://www.w3.org/2000/svg">
<path d="M29.7083 5.16675C17.5925 5.16675 7.75 15.0092 7.75 27.1251C7.75 39.2409 17.5925 49.0834 29.7083 49.0834H31V56.8334C43.555 50.7884 51.6667 38.7501 51.6667 27.1251C51.6667 15.0092 41.8242 5.16675 29.7083 5.16675ZM32.2917 42.6251H27.125V37.4584H32.2917V42.6251ZM32.2917 33.5834H27.125C27.125 25.1876 34.875 25.8334 34.875 20.6667C34.875 17.8251 32.55 15.5001 29.7083 15.5001C26.8667 15.5001 24.5417 17.8251 24.5417 20.6667H19.375C19.375 14.9576 23.9992 10.3334 29.7083 10.3334C35.4175 10.3334 40.0417 14.9576 40.0417 20.6667C40.0417 27.1251 32.2917 27.7709 32.2917 33.5834Z" fill="black"/>
</svg>
